<svg width="291" height="300" fill="none" xmlns="http://www.w3.org/2000/svg"><path d="M190.5 272.56c7.85-25.37 50-26.66 70.09-24.14 44.67-6.06 30.45-101.27 17.75-148.12-8.67-32.57-20.33-51.13-45.79-72.88-53.42-45.66-136.9-25.08-178.94-4.26-42.05 20.82-64.48 97.49-42.05 122.1 22.42 24.6 33.17 86.13 42.05 127.3 8.88 41.17 127.08 31.7 136.9 0z" fill="#DDE1E8" fill-opacity=".3"/><path opacity=".08" fill-rule="evenodd" clip-rule="evenodd" d="M146.97 61.02c-3.6.1-7.25.6-10.88 1.54-10.02 2.6-18.18 8.1-23.64 15.15-22.99 7.15-38.22 17.39-37.66 26.7-.09.75-.07 1.49.04 2.23 1.47 9.29 19.08 14.99 43.48 15.46l-9.64 107.8 2.65-.09c.7 2.16 1.76 3.99 3.2 5.47 2.79 2.87 6.77 4.3 11.97 4.3 5.19 0 9.18-1.43 11.96-4.3a14.14 14.14 0 003.5-6.45l7.14-.23V250h7.07v-10c0-.32-.12-1.51-.37-3.57h.37c1.73 2.1 4.12 3.16 7.17 3.16a9.2 9.2 0 005.28-1.53 9.61 9.61 0 003.46-4.43c.7-1.68 1.1-3.61 1.2-5.8l8.82-.29c.72.36 1.57.74 2.54 1.12 1.4.56 2.5 1.06 3.34 1.48.84.41 1.42.79 1.76 1.13.34.32.51.75.51 1.28 0 1.41-1.28 2.12-3.85 2.12-1.25 0-2.7-.2-4.35-.6a25.6 25.6 0 01-4.43-1.48v5.56c1.16.47 2.4.82 3.73 1.06 1.33.25 2.94.38 4.82.38 3.68 0 6.44-.67 8.28-1.99 1.85-1.32 2.78-3.25 2.78-5.78a6.01 6.01 0 00-1.82-4.7l7.53-.24.09 1.56h5.65l.1-1.75 10.68-.34-36.1-113.67c22.18-7.07 36.8-16.97 36.33-25.97a8.4 8.4 0 00-.04-2.28c-1.53-9.64-20.01-15.49-45.38-15.74a46.94 46.94 0 00-27.29-7.67zm-26.93 170.1a8.06 8.06 0 01-.95-1.55l15.01-.49c-1.28 3.18-3.82 4.77-7.61 4.77-2.86 0-5.01-.91-6.45-2.74zm37.35 1.3c-.64-.9-1.03-2.24-1.17-4.05l9.82-.31c-.28 4.05-1.85 6.08-4.7 6.08-1.8 0-3.11-.58-3.95-1.72zm44.35 3.57c0-1.24.35-2.17 1.04-2.8.7-.63 1.71-.95 3.04-.95 1.28 0 2.27.32 2.97.97.71.65 1.07 1.57 1.07 2.78 0 1.16-.36 2.08-1.07 2.76-.71.66-1.7.99-2.97.99-1.3 0-2.3-.32-3.01-.97a3.6 3.6 0 01-1.07-2.78z" fill="#C299D6"/><path fill-rule="evenodd" clip-rule="evenodd" d="M167.32 164.32a3.17 3.17 0 00-3.62-5.19l-10.32 7.22-7.22-10.32a3.17 3.17 0 10-5.19 3.63l7.22 10.31-10.44 7.3a3.17 3.17 0 003.63 5.2l10.44-7.3 7.3 10.44a3.17 3.17 0 005.19-3.63l-7.3-10.44 10.31-7.22z" fill="#F44336"/><path d="M137.84 223.37c0 5.32-1.31 9.41-3.95 12.27-2.64 2.86-6.42 4.29-11.35 4.29-4.92 0-8.7-1.43-11.34-4.3-2.64-2.85-3.96-6.95-3.96-12.3 0-5.35 1.32-9.44 3.96-12.25 2.65-2.83 6.45-4.24 11.39-4.24s8.71 1.42 11.32 4.26c2.62 2.85 3.94 6.94 3.94 12.27zm-23.45 0c0 3.6.68 6.3 2.04 8.11 1.36 1.82 3.4 2.73 6.11 2.73 5.44 0 8.16-3.61 8.16-10.84 0-7.24-2.7-10.86-8.11-10.86-2.71 0-4.76.92-6.14 2.75-1.37 1.82-2.06 4.52-2.06 8.11zM157.48 239.93c-2.89 0-5.15-1.05-6.8-3.15h-.35a58 58 0 01.35 3.56v9.96h-6.7v-35.4h5.45l.95 3.2h.3c1.57-2.44 3.9-3.66 6.97-3.66 2.9 0 5.18 1.13 6.82 3.37 1.64 2.24 2.46 5.36 2.46 9.34 0 2.63-.39 4.9-1.16 6.84a9.53 9.53 0 01-3.28 4.42 8.42 8.42 0 01-5.01 1.52zm-1.98-20.12c-1.66 0-2.87.51-3.63 1.54-.76 1.01-1.16 2.69-1.19 5.03v.73c0 2.64.4 4.53 1.17 5.67.8 1.14 2.04 1.72 3.74 1.72 3 0 4.5-2.48 4.5-7.44 0-2.41-.37-4.22-1.12-5.43-.73-1.21-1.89-1.82-3.47-1.82zM189.62 232.19c0 2.52-.88 4.44-2.64 5.76-1.74 1.32-4.36 1.98-7.85 1.98a24 24 0 01-4.57-.38 16.87 16.87 0 01-3.54-1.05v-5.54c1.25.58 2.64 1.07 4.2 1.47 1.57.4 2.94.6 4.13.6 2.44 0 3.65-.71 3.65-2.12 0-.53-.16-.95-.48-1.27a6.6 6.6 0 00-1.67-1.12c-.8-.43-1.85-.92-3.17-1.48a20.22 20.22 0 01-4.18-2.2 6.35 6.35 0 01-1.93-2.3c-.4-.88-.6-1.96-.6-3.24 0-2.18.85-3.87 2.53-5.05 1.7-1.2 4.1-1.8 7.22-1.8 2.96 0 5.84.64 8.63 1.93l-2.02 4.84a37.45 37.45 0 00-3.45-1.3c-1.07-.34-2.16-.5-3.28-.5-1.97 0-2.96.53-2.96 1.6 0 .6.31 1.12.94 1.56.65.44 2.05 1.1 4.2 1.96 1.92.77 3.33 1.5 4.22 2.17.9.68 1.56 1.45 1.98 2.33.43.88.64 1.93.64 3.15zM200.48 228.82h-5.36l-1.13-21.48h7.61l-1.12 21.48zm-6.57 7.52c0-1.23.33-2.16.99-2.79.66-.63 1.61-.95 2.88-.95 1.21 0 2.15.33 2.8.97.68.65 1.02 1.57 1.02 2.77 0 1.16-.34 2.08-1.01 2.75-.68.66-1.61.99-2.81.99a3.97 3.97 0 01-2.86-.97 3.7 3.7 0 01-1.01-2.77z" fill="#606060"/><path opacity=".35" d="M210.7 226.73l-40.33-133.4-53.47 4.72-11.26 132.22s12.94 6 26.27-.88c13.32-6.89 16-.54 26.26-.89 10.26-.34 17.08-5.46 26.27-.88 9.8 4.88 26.26-.89 26.26-.89z" fill="#FFD39E"/><path d="M210.84 86.75c1.96 13.04-27.17 28.25-65.08 33.97-37.9 5.71-70.23-.22-72.2-13.27-1.97-13.04 27.17-28.24 65.08-33.96 37.9-5.72 70.23.22 72.2 13.26z" fill="#8533AD"/><path d="M210.88 85.32c1.99 13.2-27.13 28.53-65.04 34.25-37.9 5.72-70.25-.35-72.24-13.54-1.99-13.2 27.13-28.53 65.04-34.25 37.9-5.71 70.25.35 72.24 13.54z" fill="#C299D6"/><path d="M191.94 76.44c0 1.04-1.68 1.88-3.75 1.88-2.07 0-3.75-.84-3.75-1.88s1.68-1.88 3.75-1.88c2.07 0 3.75.84 3.75 1.88zM176.24 73.88c0 1.03-1.68 1.87-3.75 1.87-2.08 0-3.76-.84-3.76-1.87 0-1.04 1.68-1.88 3.76-1.88 2.07 0 3.75.84 3.75 1.88zM201.32 87.7c0 1.03-1.68 1.87-3.75 1.87-2.07 0-3.75-.84-3.75-1.87 0-1.04 1.68-1.88 3.75-1.88 2.07 0 3.75.84 3.75 1.88zM186.31 100.83c0 1.03-1.68 1.87-3.75 1.87-2.07 0-3.75-.84-3.75-1.87 0-1.04 1.68-1.88 3.75-1.88 2.07 0 3.75.84 3.75 1.88zM167.55 106.46c0 1.03-1.68 1.87-3.75 1.87-2.07 0-3.75-.84-3.75-1.87 0-1.04 1.68-1.88 3.75-1.88 2.07 0 3.75.84 3.75 1.88zM143.16 112.08c0 1.04-1.67 1.88-3.75 1.88-2.07 0-3.75-.84-3.75-1.88 0-1.03 1.68-1.87 3.75-1.87 2.08 0 3.75.84 3.75 1.87zM116.9 112.08c0 1.04-1.68 1.88-3.75 1.88-2.07 0-3.75-.84-3.75-1.88 0-1.03 1.68-1.87 3.75-1.87 2.07 0 3.75.84 3.75 1.87zM100.02 108.33c0 1.04-1.68 1.88-3.76 1.88-2.07 0-3.75-.84-3.75-1.88 0-1.03 1.68-1.87 3.75-1.87 2.08 0 3.76.84 3.76 1.87zM90.64 98.95c0 1.04-1.68 1.88-3.76 1.88-2.07 0-3.75-.84-3.75-1.88 0-1.03 1.68-1.87 3.75-1.87 2.08 0 3.76.84 3.76 1.87zM101.9 89.57c0 1.04-1.69 1.88-3.76 1.88s-3.75-.84-3.75-1.88c0-1.03 1.68-1.87 3.75-1.87 2.07 0 3.75.84 3.75 1.87z" fill="#8533AD"/><path fill-rule="evenodd" clip-rule="evenodd" d="M103.65 89.62c-1.22 3.91-.4 8.3 2.67 11.03 4.51 4 10.76 5.97 16.97 4.77l46.67-9.01a18.24 18.24 0 005.87-2.22c4.72-2.8 5.28-9.2 2.33-13.84-9.2-14.44-28.2-21.8-46.5-16.81-14.06 3.82-24.26 13.98-28.01 26.08z" fill="#8533AD"/><path opacity=".1" fill-rule="evenodd" clip-rule="evenodd" d="M119.38 97.8c-3.16 3.87-5.39 6.61-6.23 6.61-.29 0-.58-.03-.88-.08a20.46 20.46 0 01-5.95-3.68c-3.06-2.72-3.88-7.12-2.67-11.03 3.75-12.1 13.95-22.26 28-26.08a44 44 0 0119.01-.93c.7.17 1.34.35 1.88.53 6.26 2.5 14.64 7.88-1.87 9.38-11.55 1.05-23.93 16.25-31.29 25.28z" fill="#C299D6"/><ellipse opacity=".2" cx="123.99" cy="69.28" rx="6" ry="1.93" transform="rotate(-25 123.99 69.28)" fill="#C299D6"/></svg>