<svg width="300" height="300" fill="none" xmlns="http://www.w3.org/2000/svg"><path d="M199.5 272.56c7.85-25.37 50-26.66 70.09-24.14 44.67-6.06 30.45-101.27 17.75-148.12-8.67-32.57-20.33-51.13-45.79-72.88-53.42-45.66-136.9-25.08-178.94-4.26-42.05 20.82-64.48 97.49-42.05 122.1 22.42 24.6 33.17 86.13 42.05 127.3 8.88 41.17 127.08 31.7 136.9 0z" fill="#DDE1E8" fill-opacity=".3"/><path d="M81.44 149.22a68.66 68.66 0 0 0 11.32 3.92c3.42.92 7.17 2.02 10.74 1.88 3.51-.14 6.85-1.62 10.03-3.02 1.73-.76 3.45-1.57 5.15-2.41 1.42-.71 3.7-1.46 4.88-2.56 2.1-1.94.92-6.07.8-8.6-.08-1.75 0-3.73-1.74-4.51.2-.24-.04-.62-.36-.45-5.67 3.06-11.77 6.96-18.11 8.33-6.71 1.45-18.7-6.11-24.82-8.7-.03 0-2.8 13.8 2.11 16.13z" fill="#F5BFB9"/><path d="M121.16 144.1c.66 1.36 4.1 4.24 9.93 3.08 1.22-.24 3.42-1.4 3.52-2.48.25-2.52.37-4.76.58-7.29.22-2.66.33-4.5.93-7.07.41-1.7-6-5.39-6.8-6.96a.57.57 0 0 0-.14-.17c-.15-2.83.41-5.29 1.11-8.08.3-1.18.55-2.4.1-3.57-.82-2.1-3.1-2.57-4.77-1.12-1.11.97-1.42 2.4-1.45 3.82-.05 3.06 1.01 5.36-.74 8.28-2.07 3.46-3.11 5.87-2.41 9.93a12.1 12.1 0 0 1-.13 5.43c-.15.64-.38 1.25-.46 1.92a7.67 7.67 0 0 0 .73 4.28z" fill="#F5BFB9"/><path d="M123.97 127.08c.7.85 1.84 1.53 2.92 1.85 2.79.82 8.82 1.46 11-.8 2.3-2.41-1.17-4.64-3.59-5.08-2.37-.45-4.94-.68-7.29-.02-.83.24-2.06.8-2.81 1.56-.7.7-1 1.56-.23 2.49z" fill="#F5BFB9"/><path d="M128.2 135.62c.22.05.48.1.75.14a5.92 5.92 0 0 0-3.01.2c-2.36 1.01-1.33 3.54.4 4.58 2.78 1.68 7.37 1.94 10.34.64 2.25-.99 2.42-4.17-.14-4.84-1.39-.36-2.83 0-4.25-.09a17 17 0 0 1-1.95-.27c3.02.4 7.03.46 8.94-1.4a2.8 2.8 0 0 0 .38-3.64c-.85-1.28-1.96-1.61-3.4-1.45a44.75 44.75 0 0 1-8.5.09c-1.3-.12-2.67-.36-3.62.8-2.4 2.92 1.93 4.8 4.06 5.24z" fill="#F5BFB9"/><path d="M126.62 144.41c2.17 1.54 5.8 2.34 8.32 1.28a3.35 3.35 0 0 0 1.74-1.77c.55-1.3 0-2.95-1.45-3.23-.98-.18-2 .14-2.96.25-1 .12-2.01.12-3-.1-1.02-.22-2.03-.57-2.99 0-1.63.97-.93 2.67.34 3.57z" fill="#F5BFB9"/><path d="M120.26 143.6c-1.48-3.14.6-5.61.6-8.77 0-.3.46-.38.53-.07.41 1.8-.42 3.1-.72 4.86-.61 3.5 1.33 5.48 3.95 7.13a6.99 6.99 0 0 1-.61-.26c-.1.14-.22.27-.34.4a6.24 6.24 0 0 1-3.41-3.28zM125.53 140.68c-.86-.75-1.48-1.76-1.37-2.97.07-.89.55-1.83 1.35-2.22-1.16-.49-1.86-1.74-2.3-2.89-.32-.85.62-3.27 1.92-3.49a3.74 3.74 0 0 1-1.79-1.54c-2.36-4.27 5.85-5.28 5.85-5.18l-.01.25c-.86.16-1.73.34-2.55.64-.83.18-2 .7-2.55 1.4-.58.73-.38 1.32-.25 2.22.16 1.2 2.25 2.11 3.3 2.28 2.85.47 3.86.38 8.64.08l.11.19c-2.53.43-5.37.6-7.87.36-.72-.07-1.53-.2-2.3-.47-1.18.88-2.02 1.87-1.8 3.16.52 3 5.23 3.56 7.55 3.77 1.73.15 3.83-.11 3.83-.09.36.01.7.05 1.05.13-3.14 1.04-6.88.66-9.9-.68-.04.05-.08.09-.16.08l-.05-.01c-.7.66-1.36 1.23-1.39 2.3-.01.56.14 1.16.45 1.64.38.6.88.74 1.5.96.59.2 1.13.51 1.71.7.86.27 1.75.48 2.64.56 1.75.16 3.49-.1 5.17-.55.07.08.1.18.16.26a10.17 10.17 0 0 1-10.26-.58c-.06.06-.15.1-.24.04l-.03-.03c-1.46 4.3 5.47 4.64 8.44 4.85-.28.08-.56.14-.85.19-.2.14-.4.27-.62.4-3.74-.06-9.72-1.94-7.38-5.76z" fill="#E6B6B0"/><path d="M118.5 143.71c-.53-3.8-.2-6.32.49-9.13l-.19.1c-4.76 2.66-9.69 5.42-14.78 6.52-.52.11-1.1.17-1.72.17-2.8 0-5.57-.95-8.14-1.95a118.51 118.51 0 0 1-12.22-5.86c-1.24-.67-2.1-.64-3.15-.9l-.07.36c-.03.14-2.6 15.16 2.8 17.71a69.9 69.9 0 0 0 11.42 3.95l.68.19c3.13.85 6.35 1.72 9.58 1.72h.66c3.61-.15 6.98-1.63 10.23-3.07 1.67-.73 3.41-1.55 5.18-2.43l.94-.44a30.18 30.18 0 0 1-1.7-6.94z" fill="#E4E7ED"/><path d="M57.37 123.29c.26 4.13.42 8.26.47 12.4.77.47 1.58.82 2.42 1.06 2.22.65 4.56.5 6.8 0a6.3 6.3 0 0 0 2.91-1.28c.23-.2.44-.44.53-.76.09-.3.07-.62.04-.93l-1.04-12.15c0-.14-.03-.3-.11-.4-.14-.15-.35-.1-.54-.04a46.72 46.72 0 0 1-11.47 2.2" fill="#F2A9A2"/><path d="M57.9 257.36c0-.27-.17-.47-.4-.48-2.96-.28-4.18-.1-7.14.2-.07-.35-.53-.34-.57.06-.48 4.91-8.95 9.65-12.22 11.85-2.38 1.6-3.86 4.52-.8 5.23 5.19 1.2 12.73-1.42 17.46-3.56 2.3-1.05 2.95-1.57 3.46-3.8.59-2.55.23-6.91.2-9.5z" fill="#1F3566"/><path d="M46.2 269.48c-1.2.3-2.29.74-3.5.89-.67.08-1.34.12-2 .13-.09 0-3.18.01-2.04-1.1.18-.16-.03-.49-.24-.36-1.19.7-.66 1.84.53 1.97 2.23.23 5.44.15 7.37-1.2.14-.1.07-.38-.13-.33zM44.31 264.79c-.2.01-.21.31 0 .33 1.1.13 2.19.35 3.22.79.93.4 1.68 1.1 2.59 1.51.2.1.3-.19.2-.33-1.2-1.79-4.09-2.44-6-2.3zM58.39 262.21c-.01-.19-.23-.35-.38-.18-.95 1.1-1.7 1.83-3.07 2.31-.89.31-1.82.47-2.72.75 1.45-2.74-6.01-5.63-6.13-2.06 0 .04.02.07.04.1-.1.08-.07.3.1.3a5.3 5.3 0 0 1 3.08.94c.63.47 1.22 1.05 1.94 1.36 0 .02.02.04.03.05l.03.03c.05.05.11.07.18.05 1.52 0 3.26-.55 4.64-1.22.84-.4 2.31-1.28 2.26-2.43zm-12.03.87c.88-1.02 1.74-1.43 3.07-.89.55.23 1.14.6 1.61.96.82.63.73 1.4.34 2.18-1.3-1.54-3.15-2.15-5.02-2.25z" fill="#4C5D85"/><path d="M71.65 266.03c.35 2.27.95 2.84 3.18 4.07 4.57 2.52 11.92 5.72 17.17 4.94 3.1-.46 1.83-3.49-.43-5.27-3.1-2.46-11.23-7.85-11.37-12.8-.01-.4-.47-.44-.56-.1-2.93-.52-4.14-.81-7.12-.77-.22 0-.4.19-.41.45-.2 2.58-.87 6.9-.46 9.48z" fill="#1F3566"/><path d="M82.94 269.56c1.16.4 2.22.92 3.43 1.17.65.13 1.32.22 2 .29.07 0 3.15.26 2.09-.93-.17-.18.06-.49.27-.34 1.13.79.52 1.89-.67 1.92-2.24.06-5.43-.28-7.26-1.78-.15-.11-.05-.39.14-.32zM85.14 265.04c.2.03.2.33-.01.33-1.11.04-2.22.17-3.28.53-.96.33-1.75.97-2.69 1.3-.2.08-.28-.21-.18-.35 1.33-1.68 4.25-2.1 6.16-1.81zM73.35 263.95c1.33.78 3.03 1.47 4.55 1.6.07.02.13 0 .18-.04l.03-.02a.36.36 0 0 0 .03-.06c.74-.24 1.37-.78 2.04-1.2a5.27 5.27 0 0 1 3.13-.7c.17.01.21-.2.12-.3a.13.13 0 0 0 .04-.09c.14-3.57-7.5-1.28-6.25 1.56-.88-.35-1.8-.58-2.66-.96-1.35-.6-2.02-1.38-2.9-2.55-.14-.18-.37-.03-.4.15-.12 1.15 1.29 2.15 2.09 2.62zm4.7 1.07c-.33-.81-.36-1.57.5-2.14a7.4 7.4 0 0 1 1.67-.83c1.36-.43 2.2.04 3 1.13-1.88-.05-3.77.4-5.16 1.84z" fill="#4C5D85"/><path d="M53.1 135.95c-.45-.58 2.14-2.9 1.17-2.95-2.64-.15-5.73.3-7.22 1.21-4.03 2.47-6.9 10.01-8.72 14.55-1.3 3.27-4.82 14.8-5.54 17.7-3.02-.36-16.77-1.54-16.85-1.24l-.07.28c-.1.09-.45 5.54-.47 8.35l.02 4.65s15.94.98 19.74 1.18c1.75.08 4.8.4 6.15-1.17 1.91-2.24 2.9-5.41 4-8.1 2.65-6.44 4.05-13.16 5.88-19.85 1.03-3.81 2.36-7.6 2.64-11.56.1-1.31-.13-2.28-.73-3.05z" fill="#E4E7ED"/><path d="M84.03 158.55c-.9-8.32-2.07-17.32-4.1-25.65-.72-.18-1.46-.32-2.2-.44-1.78-.3-3.57-.48-5.37-.58-1.34 1.87-3.11 3.4-5.4 3.75-3.54.55-7.15-1.48-10.35-2.9-2.78.32-5.53.8-8.18 1.67-.72 3.5-1.09 7.1-1.57 10.6a208.4 208.4 0 0 0-1.53 14.6c-.65 9.76-.42 19.52.87 29.22.03.22.11.4.21.53.07.25.24.47.53.52 6.09.88 13.76 1.09 19.9.92 12.7-.33 16.29-.52 16.3-1.37.21-8.53 1.96-20.79.89-30.87z" fill="#E4E7ED"/><path d="M83.25 221.77c.4-12 .83-24.1.52-36.1 0-.25-.26-.31-.37-.17h-.03c-6.75 2.14-13.58 2.67-20.55 2.3-3.34-.2-6.69-.54-10.03-.92-1.35-.15-2.7-.3-4.05-.53a41.96 41.96 0 0 0-3.38-.5c-.23 12.14.7 48.8 1.12 54.78.43 5.91 1.07 18.31 1.31 18.33 3.06.25 7.5-.17 10.55-.3.2 0 .35-.16.37-.4 1.18-10.7 2.36-21.42 3.63-32.11l1.9-15.88c.26-2.16.59-4.34.9-6.52.27 1.93.57 3.86.81 5.78L68 225.67c1.35 10.77 1.48 21.58 2.74 32.37.01.17.2.3.33.32 2.9.66 5.92.78 10.42-.1.27-.05.76-12.5 1.04-18.46.3-6 .54-12.02.73-18.03z" fill="#384B77"/><path d="M73.36 176.55c-.6-1.54-.98-3.14-1.46-4.72-.93-3.14-2-6.23-2.77-9.42a112.14 112.14 0 0 1-2.89-20.44c-.01-.3-.26-.5-.53-.44-1.24.3-2.48.32-3.74.32-.43 0-.54.56-.32.83.75.93-.98 11.46-1.28 13.72-1.05 8.04-1.06 16.12-1.75 24.2-.02.2 2.02 3.74 3.04 5.15.84 1.18 4.24 5.77 4.83 6.73.11.19 5.08-9.15 7.67-13.15.1-.13-.45-1.88-.8-2.78z" fill="#E44C3D"/><path d="M68.42 136.19c-.67-.9-1.78-.98-2.76-1.01-1.67-.04-5-.52-6.02 1.4a.22.22 0 0 0-.2.14c-.98 2.56 1.03 6.1 3.26 7.05 2.73 1.15 5.62-.65 6.18-3.76.2-1.18.27-2.83-.46-3.82z" fill="#E44C3D"/><path d="M43.21 100a.64.64 0 0 0-.11-.35.76.76 0 0 0-.27-.35c-1.72-2.15-4.93-2.93-7.08-.84-2.29 2.24-1.6 6.64-.5 9.32 1.17 2.91 4.33 3.62 7 2.1 2.93-1.69 1.85-7.1.96-9.87zM84.84 103.37c2.94.87 5.86-.57 6.33-3.67.45-2.86.12-7.31-2.62-8.95-2.56-1.54-5.5-.03-6.7 2.47-.09.1-.15.23-.18.4a.57.57 0 0 0-.03.37c-.22 2.92-.04 8.44 3.2 9.38z" fill="#F5BFB9"/><path d="M82.3 80c-.98-4.6-1.46-9.28-6.73-9.79-3.35-.32-6.93.3-10.26.76a100.65 100.65 0 0 0-20.58 4.97c-2.14.77-3.38.56-6 3.44a11.66 11.66 0 0 0-.58.7c-.39.54-.08 1.08.4 1.3.09 6.46.93 12.9 1.78 19.3.4 3.06.85 6.11 1.34 9.16.46 2.92.7 6.18 1.7 8.98 1.71 4.72 6.96 6.2 11.23 7.65 5.61 1.89 11.09 2.75 16.77 1.03 4.79-1.45 9.91-7.49 12.1-11.77 2.5-4.89 1.06-9.97.98-15.47-.1-6.45-.82-13.96-2.16-20.26z" fill="#F5BFB9"/><path d="M85.79 74.33c-.34-.91-.78-2-1.35-2.96 2.04-3.17 3.2-9.15.77-11.42-3.68-3.4-9.42-1.41-12.69 1.79-.77-2.9-5.36-3.96-8.39-2.96-3.75 1.23-4.97 4.4-5.74 8.2-2.91-3.42-6.96-5.61-11.33-3.15-3.32 1.87-5.87 6.17-5.95 10.13l-.13-.04c-1.54-.45-3.3-.66-4.71 1.28-2.59 3.57-2.76 8.05-1.66 13.37.73 3.58 4.65 11.4 6.66 13.32.35.34 1.74-4.65 2.9-10.55a74.2 74.2 0 0 0 1.4-13.67 18.3 18.3 0 0 0 5.46 1.45c3.23.34 5.37-.34 7.03-2.83 3.46 3.55 9.13 2.83 12.35-.69 2.37 1.52 5.62 1.6 8.41.58.77 1.72 1.5 3.46 2.09 5.3 1.1 3.48 3.2 12.56 3.47 12.15 1.64-2.67 2.53-6.57 2.67-9.3.16-3.47-.06-6.73-1.26-10z" fill="#1F3566"/><path d="M50.1 103.75c-.16-2.3-.3-8.63 3.52-8.07 3.1.45 2.66 5.53 3.7 7 .12.18.58.05.7-.14.54-.98-.44-4.38-1.06-5.87-.72-1.72-1.95-2.74-3.94-2.58-4.24.34-5.35 6.57-4.17 9.83.22.64 1.3.6 1.24-.17zM70.76 99.16c-.15-2.08-.3-7.77 3.53-7.28 3.1.4 2.66 5 3.7 6.32.12.15.58.04.7-.13.54-.88-.44-3.94-1.06-5.29a3.71 3.71 0 0 0-3.94-2.33c-4.24.3-5.35 5.93-4.17 8.87.22.57 1.3.54 1.24-.16zM51.76 87.16c-2.28.37-5.55 2.32-5.29 5.08.02.22.31.42.5.25.77-.69 1.3-1.59 2.03-2.31a8.28 8.28 0 0 1 3-1.88c.6-.22.43-1.25-.24-1.14zM71.51 84.92c1.22-.03 2.58-.09 3.73.38 1.13.46 1.8 1.53 2.71 2.28.21.17.61.09.59-.24-.1-1.52-1-2.83-2.37-3.47-1.54-.74-3.22-.46-4.82-.13-.66.13-.5 1.2.16 1.18z" fill="#1F3566"/><path d="M68.8 103.04c-1.85-.15-2.82-.36-3.67-2.37-.29-.66-.37-1.42-.5-2.12-.32-1.77-.43-3.57-.86-5.32-.12-.46-.86-.49-.95 0-.55 2.75.17 5.73 1.37 8.23a4.73 4.73 0 0 0 3.93 2.86c-.23 2.51-3.03 2.42-4.94 3.12-.43.16-.45.76 0 .9 2.96.97 6.53-1.35 6.3-4.61-.04-.4-.3-.67-.68-.7z" fill="#E7B6B0"/><path d="M53.23 113.45v.36c1.3 3.39 4.21 6.08 7.63 7.18 4.55 1.48 11.1.35 13.45-4.3.85-1.67 1.54-4.45 1.48-8.24a94.9 94.9 0 0 1-22.56 5z" fill="#384B77"/><path d="M56.78 114.56c.76.95 1.88.97 3 .96 2-.01 4.02-.23 5.97-.65 2.37-.5 4.94-1.25 7-2.57 1.43-.9 1.45-2.01 1.22-3.24a94.83 94.83 0 0 1-17.94 4.08 5 5 0 0 0 .75 1.42z" fill="#fff"/><path d="M65.52 117.62c-2.73-.09-6.15.7-7.8 1.82.97.66 2.03 1.2 3.13 1.55 3.53 1.15 8.27.72 11.31-1.71-1.35-.88-4.01-1.57-6.64-1.66z" fill="#E65749"/><path d="M77.3 134.33c-.92-1.54-1.9-3.23-3.21-4.37-.64-.57-1.98-1.73-2.98-.93-.73.58-1.6 1.41-2.31 2.02-1.82 1.59-3.06 2.41-4.9 3.82a.4.4 0 0 0-.09.12c-1.77-1.35-3-2.19-4.78-3.73-.7-.62-1.59-1.44-2.31-2.02-1-.8-2.34.36-2.99.92-1.31 1.15-2.29 2.83-3.2 4.38-.16.27 6.46 6.66 7.07 7.15.57.45 1.13.95 1.73 1.33.3.2.53.05.69-.29.2-.42.37-.88.58-1.3.3-.62.63-1.2 1-1.78.72-1.12 1.46-3.18 2.41-4.07a16.48 16.48 0 0 1 3.33 4.62c.2.43.61 1.88.82 2.3.16.34.39.49.69.3.6-.38 1.16-.88 1.72-1.34.61-.48 1.2-.99 1.8-1.48 1.2-1.02 5.1-5.37 4.93-5.65z" fill="#D5D8DD"/><path d="M19 175.02c-.66 1.35-4.1 4.24-9.92 3.08-1.22-.25-3.42-1.4-3.53-2.48-.24-2.52-.37-4.76-.57-7.29-.23-2.67-.33-4.5-.94-7.07-.4-1.7 6-5.39 6.8-6.96a.58.58 0 0 1 .15-.17c.14-2.83-.41-5.3-1.11-8.08-.3-1.18-.56-2.4-.1-3.57.81-2.1 3.1-2.57 4.77-1.12 1.11.97 1.42 2.4 1.44 3.82.06 3.06-1 5.36.75 8.28 2.06 3.46 3.1 5.87 2.4 9.93a12.1 12.1 0 0 0 .14 5.43c.15.64.37 1.25.46 1.92a7.67 7.67 0 0 1-.73 4.28z" fill="#F5BFB9"/><path d="M16.2 158a6.24 6.24 0 0 1-2.93 1.85c-2.78.82-8.82 1.46-10.98-.8-2.3-2.41 1.16-4.64 3.58-5.09 2.37-.44 4.93-.67 7.28 0 .84.23 2.06.79 2.82 1.55.7.7 1 1.56.22 2.49z" fill="#F5BFB9"/><path d="M11.97 166.54l-.75.14a5.92 5.92 0 0 1 3.01.2c2.36 1.01 1.33 3.54-.4 4.58-2.79 1.67-7.37 1.94-10.35.63-2.24-.98-2.42-4.16.14-4.83 1.4-.36 2.84-.01 4.25-.1.58-.02 1.26-.14 1.96-.26-3.02.4-7.03.46-8.94-1.4a2.8 2.8 0 0 1-.38-3.64c.84-1.28 1.96-1.61 3.4-1.45a44.75 44.75 0 0 0 8.5.09c1.3-.12 2.67-.36 3.62.8 2.4 2.92-1.94 4.8-4.06 5.24z" fill="#F5BFB9"/><path d="M13.55 175.33c-2.17 1.54-5.81 2.34-8.32 1.27a3.36 3.36 0 0 1-1.75-1.76c-.54-1.3 0-2.96 1.46-3.23.98-.18 1.99.14 2.95.25 1 .12 2.02.12 3.01-.1 1.01-.22 2.02-.57 2.99 0 1.63.97.93 2.67-.34 3.57z" fill="#F5BFB9"/><path d="M19.91 174.53c1.48-3.16-.6-5.63-.6-8.78 0-.3-.46-.38-.53-.07-.42 1.8.41 3.1.72 4.85.6 3.5-1.33 5.49-3.95 7.14.21-.08.42-.17.6-.26a3 3 0 0 0 .35.4 6.24 6.24 0 0 0 3.41-3.28zM14.63 171.6c.87-.75 1.48-1.76 1.38-2.98-.07-.88-.55-1.82-1.35-2.21 1.15-.5 1.86-1.74 2.3-2.89.32-.85-.62-3.27-1.92-3.5a3.73 3.73 0 0 0 1.79-1.53c2.36-4.27-5.85-5.28-5.85-5.19v.25c.87.17 1.73.35 2.56.64.82.2 2 .7 2.55 1.41.58.73.37 1.32.25 2.22-.16 1.2-2.25 2.1-3.3 2.28-2.86.46-3.86.38-8.64.08l-.12.19c2.53.42 5.37.6 7.87.35.73-.06 1.54-.2 2.3-.46 1.2.88 2.03 1.87 1.8 3.16-.51 2.99-5.23 3.56-7.55 3.77-1.72.15-3.82-.11-3.82-.09-.36.01-.7.05-1.05.13 3.13 1.04 6.88.66 9.9-.68.03.05.08.08.16.08l.04-.01c.71.66 1.36 1.23 1.4 2.3.01.56-.14 1.15-.45 1.64-.39.6-.88.74-1.51.96-.58.2-1.12.51-1.7.7-.87.27-1.75.48-2.65.56-1.74.16-3.48-.1-5.16-.55-.07.08-.11.18-.17.26a10.17 10.17 0 0 0 10.27-.58c.06.06.15.1.23.04l.03-.03c1.46 4.3-5.46 4.64-8.43 4.85.27.08.55.14.85.19.2.14.4.27.62.4 3.73-.07 9.71-1.94 7.37-5.76z" fill="#E6B6B0"/><path opacity=".5" fill="#BFBFBF" d="M180.25 76.06h54.8v7.21h-54.8zM180.25 86.16h91.09v21.62h-91.09zM156.05 76.06h18.5V94.8h-18.5z"/><path d="M166 51.73l2.76 5.64c.04.09.13.15.23.17l6.15.9c.26.04.36.36.17.54l-4.45 4.39a.32.32 0 0 0-.09.27l1.05 6.2a.31.31 0 0 1-.45.33l-5.5-2.93a.3.3 0 0 0-.28 0l-5.5 2.93a.31.31 0 0 1-.46-.33l1.06-6.2a.32.32 0 0 0-.1-.27l-4.44-4.4a.31.31 0 0 1 .17-.53l6.15-.9c.1-.02.19-.08.23-.17l2.75-5.64a.3.3 0 0 1 .56 0z" fill="#F3CC30"/><path d="M165.73 53.03l-2.45 4.8a.82.82 0 0 1-.66.45l-5.31.5 5.62.26c.35.01.68-.2.8-.54l2-5.47z" fill="#F7DB5E"/><path d="M159.76 69.13l-.13.7c-.04.26.23.46.46.34l5.5-2.93a.3.3 0 0 1 .28 0l5.5 2.93c.23.12.5-.08.45-.33l-1.05-6.2c-.01-.1.02-.2.1-.27l4.44-4.4a.31.31 0 0 0-.17-.53l-2.06-.3c-3.33 6.05-8.43 9.23-13.32 10.99z" fill="#EDBD31"/><path d="M213.98 51.73l2.75 5.64c.04.09.13.15.23.17l6.15.9c.25.04.35.36.17.54l-4.45 4.39a.32.32 0 0 0-.09.27l1.05 6.2a.31.31 0 0 1-.45.33l-5.5-2.93a.3.3 0 0 0-.29 0l-5.5 2.93a.31.31 0 0 1-.45-.33l1.05-6.2a.32.32 0 0 0-.09-.27l-4.44-4.4a.31.31 0 0 1 .17-.53l6.15-.9c.1-.02.18-.08.23-.17l2.75-5.64a.3.3 0 0 1 .56 0z" fill="#F3CC30"/><path d="M213.7 53.03l-2.45 4.8a.82.82 0 0 1-.66.45l-5.32.5 5.62.26c.36.01.69-.2.81-.54l2-5.47z" fill="#F7DB5E"/><path d="M207.72 69.13l-.12.7c-.04.26.23.46.45.34l5.5-2.93a.3.3 0 0 1 .3 0l5.5 2.93c.22.12.49-.08.44-.33l-1.05-6.2c-.02-.1.02-.2.1-.27l4.44-4.4a.32.32 0 0 0-.17-.53l-2.06-.3c-3.33 6.05-8.43 9.23-13.33 10.99z" fill="#EDBD31"/><path d="M190 51.73l2.74 5.64c.05.09.13.15.24.17l6.15.9c.25.04.35.36.17.54l-4.45 4.39a.32.32 0 0 0-.1.27l1.06 6.2a.31.31 0 0 1-.45.33l-5.5-2.93a.3.3 0 0 0-.3 0l-5.5 2.93a.31.31 0 0 1-.44-.33l1.05-6.2a.32.32 0 0 0-.09-.27l-4.45-4.4a.31.31 0 0 1 .17-.53l6.15-.9c.1-.02.19-.08.24-.17l2.75-5.64a.3.3 0 0 1 .55 0z" fill="#F3CC30"/><path d="M189.71 53.03l-2.45 4.8a.82.82 0 0 1-.65.45l-5.32.5 5.62.26c.36.01.68-.2.8-.54l2-5.47z" fill="#F7DB5E"/><path d="M183.74 69.13l-.12.7c-.04.26.22.46.45.34l5.5-2.93a.3.3 0 0 1 .29 0l5.5 2.93c.23.12.5-.08.45-.33l-1.05-6.2c-.02-.1.02-.2.09-.27l4.45-4.4a.31.31 0 0 0-.18-.53l-2.05-.3c-3.34 6.05-8.44 9.23-13.33 10.99z" fill="#EDBD31"/><path d="M237.96 51.73l2.75 5.64c.04.09.13.15.23.17l6.15.9c.26.04.36.36.17.54l-4.44 4.39a.32.32 0 0 0-.1.27l1.06 6.2a.31.31 0 0 1-.45.33l-5.5-2.93a.3.3 0 0 0-.3 0l-5.5 2.93a.31.31 0 0 1-.44-.33l1.05-6.2a.31.31 0 0 0-.1-.27l-4.44-4.4a.31.31 0 0 1 .17-.53l6.15-.9c.1-.02.19-.08.23-.17l2.75-5.64a.3.3 0 0 1 .56 0z" fill="#F3CC30"/><path d="M237.68 53.03l-2.45 4.8a.82.82 0 0 1-.65.45l-5.32.5 5.62.26c.36.01.68-.2.8-.54l2-5.47z" fill="#F7DB5E"/><path d="M231.7 69.13l-.11.7c-.05.26.22.46.45.34l5.5-2.93a.3.3 0 0 1 .29 0l5.5 2.93c.22.12.49-.08.45-.33l-1.05-6.2c-.02-.1.01-.2.09-.27l4.44-4.4a.31.31 0 0 0-.17-.53l-2.06-.3c-3.33 6.05-8.43 9.23-13.32 10.99z" fill="#EDBD31"/><path d="M261.94 51.73l2.75 5.64c.05.09.14.15.24.17l6.15.9c.25.04.35.36.17.54l-4.45 4.39a.32.32 0 0 0-.09.27l1.05 6.2a.31.31 0 0 1-.45.33l-5.5-2.93a.3.3 0 0 0-.29 0l-5.5 2.93a.31.31 0 0 1-.45-.33l1.05-6.2a.31.31 0 0 0-.09-.27l-4.45-4.4a.31.31 0 0 1 .17-.53l6.15-.9c.1-.02.2-.08.24-.17l2.75-5.64a.3.3 0 0 1 .55 0z" fill="#F3CC30"/><path d="M261.67 53.03l-2.46 4.8a.82.82 0 0 1-.65.45l-5.32.5 5.62.26c.36.01.69-.2.81-.54l2-5.47z" fill="#F7DB5E"/><path d="M255.7 69.13l-.13.7c-.04.26.22.46.45.34l5.5-2.93a.3.3 0 0 1 .3 0l5.49 2.93c.23.12.5-.08.45-.33l-1.05-6.2c-.02-.1.02-.2.09-.27l4.45-4.4a.31.31 0 0 0-.17-.53l-2.06-.3c-3.33 6.05-8.43 9.23-13.33 10.99z" fill="#EDBD31"/><path fill-rule="evenodd" clip-rule="evenodd" d="M179.09 76.61l-14.4 14.6-7.21-7.31 3.39-3.43 3.81 3.86 11.02-11.15 3.39 3.43z" fill="#2ECD50"/><path opacity=".5" fill="#BFBFBF" d="M180.25 139.76h54.8v7.21h-54.8zM180.25 149.85h91.09v21.62h-91.09zM156.05 139.76h18.5v18.74h-18.5z"/><path d="M166 115.43l2.76 5.63c.04.1.13.16.23.17l6.15.9c.26.05.36.36.17.54l-4.45 4.4a.32.32 0 0 0-.09.27l1.05 6.2a.31.31 0 0 1-.45.32l-5.5-2.92a.3.3 0 0 0-.28 0l-5.5 2.92a.31.31 0 0 1-.46-.33l1.06-6.2a.32.32 0 0 0-.1-.27l-4.44-4.39a.31.31 0 0 1 .17-.53l6.15-.9a.3.3 0 0 0 .23-.18l2.75-5.63a.3.3 0 0 1 .56 0z" fill="#F3CC30"/><path d="M165.73 116.73l-2.45 4.8a.82.82 0 0 1-.66.44l-5.31.5 5.62.26c.35.02.68-.2.8-.54l2-5.46z" fill="#F7DB5E"/><path d="M159.76 132.82l-.13.71c-.04.26.23.46.46.34l5.5-2.93c.09-.05.2-.05.28 0l5.5 2.93c.23.12.5-.08.45-.34l-1.05-6.2c-.01-.1.02-.2.1-.27l4.44-4.39a.31.31 0 0 0-.17-.53l-2.06-.3c-3.33 6.04-8.43 9.23-13.32 10.98z" fill="#EDBD31"/><path d="M213.98 115.43l2.75 5.63c.04.1.13.16.23.17l6.15.9c.25.05.35.36.17.54l-4.45 4.4a.32.32 0 0 0-.09.27l1.05 6.2a.31.31 0 0 1-.45.32l-5.5-2.92a.3.3 0 0 0-.29 0l-5.5 2.92a.31.31 0 0 1-.45-.33l1.05-6.2a.32.32 0 0 0-.09-.27l-4.44-4.39a.31.31 0 0 1 .17-.53l6.15-.9a.3.3 0 0 0 .23-.18l2.75-5.63a.3.3 0 0 1 .56 0z" fill="#F3CC30"/><path d="M213.7 116.73l-2.45 4.8a.82.82 0 0 1-.66.44l-5.32.5 5.62.26c.36.02.69-.2.81-.54l2-5.46z" fill="#F7DB5E"/><path d="M207.72 132.82l-.12.71c-.04.26.23.46.45.34l5.5-2.93a.3.3 0 0 1 .3 0l5.5 2.93c.22.12.49-.08.44-.34l-1.05-6.2c-.02-.1.02-.2.1-.27l4.44-4.39a.32.32 0 0 0-.17-.53l-2.06-.3c-3.33 6.04-8.43 9.23-13.33 10.98z" fill="#EDBD31"/><path d="M190 115.43l2.74 5.63c.05.1.13.16.24.17l6.15.9c.25.05.35.36.17.54l-4.45 4.4a.32.32 0 0 0-.1.27l1.06 6.2a.31.31 0 0 1-.45.32l-5.5-2.92a.3.3 0 0 0-.3 0l-5.5 2.92a.31.31 0 0 1-.44-.33l1.05-6.2a.32.32 0 0 0-.09-.27l-4.45-4.39a.31.31 0 0 1 .17-.53l6.15-.9a.3.3 0 0 0 .24-.18l2.75-5.63a.3.3 0 0 1 .55 0z" fill="#F3CC30"/><path d="M189.71 116.73l-2.45 4.8a.82.82 0 0 1-.65.44l-5.32.5 5.62.26c.36.02.68-.2.8-.54l2-5.46z" fill="#F7DB5E"/><path d="M183.74 132.82l-.12.71c-.04.26.22.46.45.34l5.5-2.93a.3.3 0 0 1 .29 0l5.5 2.93c.23.12.5-.08.45-.34l-1.05-6.2c-.02-.1.02-.2.09-.27l4.45-4.39a.31.31 0 0 0-.18-.53l-2.05-.3c-3.34 6.04-8.44 9.23-13.33 10.98z" fill="#EDBD31"/><path d="M237.96 115.43l2.75 5.63c.04.1.13.16.23.17l6.15.9c.26.05.36.36.17.54l-4.44 4.4a.32.32 0 0 0-.1.27l1.06 6.2a.31.31 0 0 1-.45.32l-5.5-2.92a.3.3 0 0 0-.3 0l-5.5 2.92a.31.31 0 0 1-.44-.33l1.05-6.2a.31.31 0 0 0-.1-.27l-4.44-4.39a.31.31 0 0 1 .17-.53l6.15-.9c.1-.02.19-.08.23-.18l2.75-5.63a.3.3 0 0 1 .56 0z" fill="#F3CC30"/><path d="M237.68 116.73l-2.45 4.8a.82.82 0 0 1-.65.44l-5.32.5 5.62.26c.36.02.68-.2.8-.54l2-5.46z" fill="#F7DB5E"/><path d="M231.7 132.82l-.11.71c-.05.26.22.46.45.34l5.5-2.93c.09-.05.2-.05.29 0l5.5 2.93c.22.12.49-.08.45-.34l-1.05-6.2c-.02-.1.01-.2.09-.27l4.44-4.39a.31.31 0 0 0-.17-.53l-2.06-.3c-3.33 6.04-8.43 9.23-13.32 10.98z" fill="#EDBD31"/><path d="M261.94 115.43l2.75 5.63c.05.1.14.16.24.17l6.15.9c.25.05.35.36.17.54l-4.45 4.4a.32.32 0 0 0-.09.27l1.05 6.2a.31.31 0 0 1-.45.32l-5.5-2.92a.3.3 0 0 0-.29 0l-5.5 2.92a.31.31 0 0 1-.45-.33l1.05-6.2a.31.31 0 0 0-.09-.27l-4.45-4.39a.31.31 0 0 1 .17-.53l6.15-.9a.3.3 0 0 0 .24-.18l2.75-5.63a.3.3 0 0 1 .55 0z" fill="#F3CC30"/><path d="M261.67 116.73l-2.46 4.8a.82.82 0 0 1-.65.44l-5.32.5 5.62.26c.36.02.69-.2.81-.54l2-5.46z" fill="#F7DB5E"/><path d="M255.7 132.82l-.13.71c-.04.26.22.46.45.34l5.5-2.93c.1-.05.2-.05.3 0l5.49 2.93c.23.12.5-.08.45-.34l-1.05-6.2c-.02-.1.02-.2.09-.27l4.45-4.39a.31.31 0 0 0-.17-.53l-2.06-.3c-3.33 6.04-8.43 9.23-13.33 10.98z" fill="#EDBD31"/><path fill-rule="evenodd" clip-rule="evenodd" d="M179.09 140.31l-14.4 14.59-7.21-7.3 3.39-3.44 3.81 3.87 11.02-11.15 3.39 3.43z" fill="#2ECD50"/><path opacity=".5" fill="#BFBFBF" d="M180.25 203.45h54.8v7.21h-54.8zM180.25 213.55h91.09v21.62h-91.09zM156.05 203.45h18.5v18.74h-18.5z"/><path d="M165.94 179.06l2.73 5.63c.04.1.13.16.23.18l6.1.9c.26.04.36.36.17.54l-4.41 4.38a.32.32 0 0 0-.1.28l1.05 6.2c.04.26-.22.45-.45.33l-5.46-2.93a.3.3 0 0 0-.28 0l-5.46 2.93c-.23.12-.5-.07-.45-.33l1.04-6.2a.32.32 0 0 0-.09-.28l-4.41-4.38a.32.32 0 0 1 .17-.54l6.1-.9a.3.3 0 0 0 .23-.18l2.73-5.63a.3.3 0 0 1 .56 0z" fill="#F3CC30"/><path d="M165.66 180.36l-2.43 4.8a.81.81 0 0 1-.65.45l-5.28.49 5.58.27c.35.01.68-.2.8-.55l1.98-5.46z" fill="#F7DB5E"/><path d="M159.73 196.46l-.12.71c-.04.26.22.45.45.33l5.46-2.93a.3.3 0 0 1 .28 0l5.46 2.93c.23.12.5-.07.45-.33l-1.04-6.2c-.02-.1.01-.2.09-.27l4.41-4.4c.19-.17.09-.5-.17-.53l-2.04-.3c-3.3 6.05-8.37 9.23-13.23 10.99z" fill="#EDBD31"/><path d="M189.96 179.06l2.73 5.63c.04.1.13.16.23.18l6.1.9c.25.04.36.36.17.54l-4.41 4.38a.32.32 0 0 0-.1.28l1.05 6.2c.04.26-.22.45-.45.33l-5.46-2.93a.3.3 0 0 0-.28 0l-5.46 2.93c-.23.12-.5-.07-.45-.33l1.04-6.2a.32.32 0 0 0-.09-.28l-4.42-4.38a.32.32 0 0 1 .18-.54l6.1-.9a.3.3 0 0 0 .23-.18l2.73-5.63a.3.3 0 0 1 .56 0z" fill="#F3CC30"/><path d="M189.68 180.36l-2.43 4.8a.81.81 0 0 1-.65.45l-5.28.49 5.58.27c.35.01.67-.2.8-.55l1.98-5.46z" fill="#F7DB5E"/><path d="M183.75 196.46l-.12.71c-.04.26.22.45.45.33l5.46-2.93a.3.3 0 0 1 .28 0l5.46 2.93c.23.12.5-.07.45-.33l-1.04-6.2c-.02-.1.01-.2.09-.27l4.41-4.4c.19-.17.09-.5-.17-.53l-2.04-.3c-3.3 6.05-8.37 9.23-13.23 10.99z" fill="#EDBD31"/><path d="M213.97 179.06l2.74 5.63c.04.1.13.16.23.18l6.1.9c.25.04.36.36.17.54l-4.42 4.38a.32.32 0 0 0-.08.28l1.04 6.2c.04.26-.22.45-.45.33l-5.46-2.93a.3.3 0 0 0-.28 0l-5.47 2.93c-.22.12-.49-.07-.44-.33l1.04-6.2a.32.32 0 0 0-.09-.28l-4.42-4.38a.32.32 0 0 1 .17-.54l6.11-.9a.3.3 0 0 0 .23-.18l2.73-5.63a.3.3 0 0 1 .56 0z" fill="#F3CC30"/><path d="M213.7 180.36l-2.43 4.8a.81.81 0 0 1-.65.45l-5.29.49 5.58.27c.36.01.68-.2.8-.55l1.99-5.46z" fill="#F7DB5E"/><path d="M207.77 196.46l-.12.71c-.05.26.22.45.44.33l5.47-2.93a.3.3 0 0 1 .28 0l5.46 2.93c.23.12.5-.07.45-.33l-1.04-6.2c-.02-.1.01-.2.08-.27l4.42-4.4c.19-.17.08-.5-.17-.53l-2.04-.3c-3.31 6.05-8.37 9.23-13.23 10.99z" fill="#EDBD31"/><path d="M238 179.06l2.72 5.63c.05.1.14.16.24.18l6.1.9c.25.04.35.36.17.54l-4.42 4.38a.32.32 0 0 0-.08.28l1.04 6.2c.04.26-.22.45-.45.33l-5.46-2.93a.3.3 0 0 0-.29 0l-5.46 2.93c-.22.12-.49-.07-.44-.33l1.04-6.2a.32.32 0 0 0-.09-.28l-4.42-4.38a.32.32 0 0 1 .17-.54l6.1-.9a.3.3 0 0 0 .24-.18l2.73-5.63a.3.3 0 0 1 .55 0z" fill="#F3CC30"/><path d="M237.72 180.36l-2.44 4.8a.81.81 0 0 1-.65.45l-5.28.49 5.58.27c.36.01.68-.2.8-.55l1.99-5.46z" fill="#F7DB5E"/><path d="M231.79 196.46l-.12.71c-.05.26.22.45.44.33l5.46-2.93a.3.3 0 0 1 .3 0l5.45 2.93c.23.12.5-.07.45-.33l-1.04-6.2c-.02-.1.01-.2.09-.27l4.41-4.4c.19-.17.08-.5-.17-.53l-2.04-.3c-3.31 6.05-8.38 9.23-13.23 10.99z" fill="#EDBD31"/><path d="M262.01 179.06l2.73 5.63c.05.1.13.16.24.18l6.1.9c.25.04.35.36.17.54l-4.42 4.38a.32.32 0 0 0-.08.28l1.04 6.2c.04.26-.22.45-.45.33l-5.46-2.93a.3.3 0 0 0-.29 0l-5.46 2.93c-.22.12-.49-.07-.44-.33l1.04-6.2a.32.32 0 0 0-.09-.28l-4.42-4.38a.32.32 0 0 1 .17-.54l6.1-.9a.3.3 0 0 0 .24-.18l2.73-5.63a.3.3 0 0 1 .55 0z" fill="#F8F8F8"/><path d="M261.79 179.17c-.02-.05-.08-.05-.1 0l-2.74 5.63a.56.56 0 0 1-.41.31m3.25-5.94L256 197.28h-.05a.06.06 0 0 1-.03-.07l1.05-6.2a.57.57 0 0 0-.16-.5l-.18.19.18-.18-4.42-4.39a.07.07 0 0 1-.02-.07c.01-.02.03-.04.05-.04l-.04-.25.04.25 6.1-.9m3.26-5.95l2.73 5.63-2.73-5.63zm-3.25 5.95l-.04-.25.04.25zm12.5.9l-6.1-.9.04-.25 6.06 1.15zm0 0c.02 0 .04.01.05.04l-.01.07m-.04-.11l.03.11m0 0l-4.41 4.39m4.41-4.39l-4.41 4.39m.8 6.76h.06a.06.06 0 0 0 .02-.07l-1.04-6.2.25-.04c-.02-.1.01-.2.08-.28l4.42-4.38-3.8 10.97zm0 0l-5.46-2.93m5.46 2.93l-5.46-2.93m4.66-3.83zm-4.66 3.83a.55.55 0 0 0-.52 0m.52 0h-.52m0 0l-5.47 2.93 5.47-2.93z" stroke="#000" stroke-opacity=".1" stroke-width=".5"/><path fill-rule="evenodd" clip-rule="evenodd" d="M179.09 204l-14.4 14.6-7.21-7.31 3.39-3.43 3.81 3.86 11.02-11.15 3.39 3.44z" fill="#2ECD50"/><ellipse opacity=".2" rx="47.66" ry="3.31" transform="matrix(1 0 0 -1 64.48 274.45)" fill="#141414"/></svg>