<svg width="60" height="56" viewBox="0 0 60 56" fill="none" xmlns="http://www.w3.org/2000/svg">
<path d="M30.5899 0.525722L38.9526 17.4486C39.0899 17.7274 39.3557 17.9198 39.6634 17.9643L58.3634 20.6782C59.1384 20.7904 59.4478 21.7417 58.8869 22.2876L45.356 35.4599C45.133 35.6763 45.0313 35.9889 45.084 36.2944L48.2785 54.8945C48.4105 55.6649 47.6007 56.2527 46.9078 55.8885L30.1823 47.1064C29.9067 46.9621 29.5785 46.9621 29.303 47.1064L12.5775 55.8885C11.8845 56.2518 11.0748 55.6649 11.2067 54.8945L14.4013 36.2944C14.4539 35.988 14.3522 35.6763 14.1293 35.4599L0.59838 22.2876C0.0374163 21.7417 0.346882 20.7913 1.12189 20.6782L19.8219 17.9643C20.1295 17.9198 20.3953 17.7265 20.5327 17.4486L28.8954 0.525722C29.2423 -0.175241 30.2438 -0.175241 30.5899 0.525722Z" fill="#F8F8F8"/>
</svg>
