<svg width="60" height="56" viewBox="0 0 60 56" fill="none" xmlns="http://www.w3.org/2000/svg">
<path d="M31.0119 0.525722L39.3746 17.4486C39.5119 17.7274 39.7777 17.9198 40.0854 17.9643L58.7854 20.6782C59.5604 20.7904 59.8698 21.7417 59.3089 22.2876L45.778 35.4599C45.555 35.6763 45.4533 35.9889 45.506 36.2944L48.7005 54.8945C48.8325 55.6649 48.0227 56.2527 47.3298 55.8885L30.6043 47.1064C30.3287 46.9621 30.0005 46.9621 29.725 47.1064L12.9995 55.8885C12.3065 56.2518 11.4968 55.6649 11.6287 54.8945L14.8233 36.2944C14.8759 35.988 14.7742 35.6763 14.5513 35.4599L1.02038 22.2876C0.459413 21.7417 0.768879 20.7913 1.54388 20.6782L20.2439 17.9643C20.5515 17.9198 20.8173 17.7265 20.9547 17.4486L29.3174 0.525722C29.6643 -0.175241 30.6658 -0.175241 31.0119 0.525722Z" fill="#F3CC30"/>
<path d="M30.1646 4.43481L22.7125 18.8513C22.3218 19.6075 21.5709 20.1125 20.7228 20.1891L4.54224 21.6641L21.6378 22.4621C22.7232 22.5129 23.7176 21.8556 24.0939 20.8375L30.1646 4.43481Z" fill="#F7DB5E"/>
<path d="M11.9971 52.7551L11.6296 54.8954C11.4976 55.6659 12.3074 56.2537 13.0004 55.8894L29.7258 47.1073C30.0014 46.963 30.3296 46.963 30.6052 47.1073L47.3306 55.8894C48.0236 56.2537 48.8334 55.6659 48.7014 54.8954L45.5068 36.2954C45.4542 35.989 45.5559 35.6773 45.7788 35.4608L59.3098 22.2886C59.8707 21.7426 59.5613 20.7923 58.7863 20.6792L52.5229 19.7698C42.3917 37.9262 26.88 47.4859 11.9971 52.7551Z" fill="#EDBD31"/>
</svg>
